Coordinates
version=1
nRows=22
nColumns=24
inDegrees=yes

Units are S.I. units (second, meters, Newtons, ...)
Angles are in degrees.

endheader
time	pelvis_tilt	pelvis_list	pelvis_rotation	pelvis_tx	pelvis_ty	pelvis_tz	hip_flexion_r	hip_adduction_r	hip_rotation_r	knee_angle_r	ankle_angle_r	subtalar_angle_r	mtp_angle_r	hip_flexion_l	hip_adduction_l	hip_rotation_l	knee_angle_l	ankle_angle_l	subtalar_angle_l	mtp_angle_l	lumbar_extension	lumbar_bending	lumbar_rotation
      5.03000000	      9.37666825	      8.09536378	      2.33285222	      0.69131446	      0.75227112	     -0.28357863	      4.88379882	     -8.40707516	     -3.77690680	    -62.46328104	     18.63835620	     -8.00748155	      0.00000000	      1.46187845	     12.45724454	      3.41021809	    -20.63342500	     23.85876812	      1.55204360	      0.00000000	    -28.61648550	     -3.19295995	     -6.85453879
      5.03500000	      9.33651780	      8.02047548	      2.40561812	      0.69794814	      0.75318722	     -0.28353824	      5.96987265	     -8.25558504	     -3.70354912	    -61.94565566	     19.35888715	     -7.76317650	      0.00000000	      0.56729049	     12.35498057	      3.71852671	    -19.91462635	     23.96545551	      1.40448523	      0.00000000	    -28.61814136	     -3.05597393	     -7.22349622
      5.04000000	      9.31406245	      7.96086407	      2.47430484	      0.70459543	      0.75402399	     -0.28349731	      7.00847877	     -8.13566867	     -3.63642441	    -61.33880077	     20.02510112	     -7.44610999	      0.00000000	     -0.34960499	     12.26133540	      4.01304904	    -19.18602947	     24.06653152	      1.28321653	      0.00000000	    -28.63833819	     -2.93006257	     -7.60358963
      5.04500000	      9.29732950	      7.90054569	      2.54185291	      0.71123848	      0.75475763	     -0.28341256	      8.00965283	     -8.01089820	     -3.55747932	    -60.63471245	     20.65695814	     -7.14332169	      0.00000000	     -1.25613381	     12.15292542	      4.24260448	    -18.48385948	     24.20218076	      1.19513239	      0.00000000	    -28.66621344	     -2.81124214	     -7.98670082
      5.05000000	      9.31340808	      7.88511084	      2.61032486	      0.71789912	      0.75542346	     -0.28335180	      8.94378689	     -7.96592019	     -3.50412158	    -59.85411071	     21.22435756	     -6.72671414	      0.00000000	     -2.21481246	     12.08780010	      4.50067483	    -17.75014061	     24.29623085	      1.11623623	      0.00000000	    -28.72955317	     -2.73265794	     -8.39150407
      5.05500000	      9.34309822	      7.88517469	      2.67677548	      0.72455560	      0.75598911	     -0.28327489	      9.83756609	     -7.94533448	     -3.44710674	    -59.00028290	     21.71302162	     -6.34544946	      0.00000000	     -3.18353860	     12.02953874	      4.72463972	    -17.02148977	     24.39646737	      1.06752456	      0.00000000	    -28.81098094	     -2.66994302	     -8.79947872
      5.06000000	      9.39741081	      7.91371204	      2.74801144	      0.73122215	      0.75647229	     -0.28318720	     10.66539018	     -7.96907706	     -3.39718763	    -58.05812467	     22.13996580	     -5.95571384	      0.00000000	     -4.17357557	     11.98985431	      4.91778927	    -16.30475355	     24.50295009	      1.04770106	      0.00000000	    -28.91824653	     -2.63667508	     -9.21941434
      5.06500000	      9.46684034	      7.96545265	      2.81799700	      0.73789673	      0.75685631	     -0.28309784	     11.44540363	     -8.03016856	     -3.34563659	    -57.04213897	     22.48463362	     -5.60494103	      0.00000000	     -5.17686312	     11.96644363	      5.08308899	    -15.59693513	     24.61404357	      1.07090592	      0.00000000	    -29.04137734	     -2.62464005	     -9.64101588
      5.07000000	      9.55782619	      8.03835175	      2.88482279	      0.74457737	      0.75715020	     -0.28300635	     12.16966890	     -8.12656724	     -3.29208295	    -55.95428380	     22.74174641	     -5.28247949	      0.00000000	     -6.19870267	     11.95838009	      5.22689571	    -14.90023599	     24.73825180	      1.13156543	      0.00000000	    -29.18682126	     -2.63292059	    -10.05908830
      5.07500000	      9.64946284	      8.13808431	      2.95715394	      0.75126085	      0.75732851	     -0.28290206	     12.85989295	     -8.26519713	     -3.24656779	    -54.79840931	     22.94559571	     -5.02225786	      0.00000000	     -7.20997384	     11.96806280	      5.32152524	    -14.22855024	     24.86514783	      1.23950321	      0.00000000	    -29.33168219	     -2.67072658	    -10.48488861
      5.08000000	      9.76839308	      8.26023410	      3.03443251	      0.75795151	      0.75742798	     -0.28279811	     13.48203359	     -8.43864599	     -3.20150925	    -53.57121579	     23.07273848	     -4.77829141	      0.00000000	     -8.24853045	     11.99266696	      5.39555245	    -13.56659964	     25.00629070	      1.37803168	      0.00000000	    -29.50780086	     -2.72751983	    -10.90111894
      5.08500000	      9.79128041	      8.39235500	      3.10273468	      0.76464763	      0.75732316	     -0.28266947	     14.18916895	     -8.62419195	     -3.11781763	    -52.29034985	     23.09802609	     -4.64689111	      0.00000000	     -9.16588670	     12.03315117	      5.48443073	    -12.94363685	     25.14095950	      1.55801292	      0.00000000	    -29.56936878	     -2.81675612	    -11.25850115
      5.09000000	      9.99373912	      8.57169029	      3.17565589	      0.77136206	      0.75728644	     -0.28258804	     14.64318924	     -8.89749228	     -3.11418861	    -50.92823468	     23.13404942	     -4.41789781	      0.00000000	    -10.28367713	     12.10354503	      5.47510241	    -12.31914120	     25.31204281	      1.75297544	      0.00000000	    -29.83007791	     -2.91366373	    -11.71218010
      5.09500000	     10.13716654	      8.74232392	      3.23520948	      0.77809893	      0.75710061	     -0.28247381	     15.12978170	     -9.15640209	     -3.07484041	    -49.49795266	     23.09464054	     -4.24908170	      0.00000000	    -11.33193567	     12.16704806	      5.48978544	    -11.71102045	     25.47225174	      1.98153890	      0.00000000	    -30.01731833	     -3.02401834	    -12.07993171
      5.10000000	     10.27870897	      8.93395488	      3.30233008	      0.78483314	      0.75681387	     -0.28236100	     15.58078375	     -9.44674570	     -3.03791672	    -48.00843311	     23.02309312	     -4.06971829	      0.00000000	    -12.36701951	     12.24697606	      5.47905358	    -11.13093875	     25.65555359	      2.23049525	      0.00000000	    -30.20074612	     -3.15328877	    -12.43355076
      5.10500000	     10.40787812	      9.14589093	      3.36040405	      0.79159446	      0.75642622	     -0.28223727	     16.00914503	     -9.77086370	     -3.01665539	    -46.46060328	     22.93115141	     -3.87293749	      0.00000000	    -13.38324217	     12.34693567	      5.45703739	    -10.57346404	     25.82195519	      2.50638757	      0.00000000	    -30.36317227	     -3.31106759	    -12.77580010
      5.11000000	     10.54406384	      9.35970647	      3.41523874	      0.79837930	      0.75596162	     -0.28211473	     16.38581245	    -10.10405136	     -3.00540338	    -44.84721013	     22.83732795	     -3.60641228	      0.00000000	    -14.40292362	     12.44523596	      5.42253827	    -10.03240530	     26.00625895	      2.80302785	      0.00000000	    -30.52640942	     -3.46865314	    -13.08427819
      5.11500000	     10.66696256	      9.58433734	      3.46554950	      0.80518789	      0.75540576	     -0.28199114	     16.73785557	    -10.45578941	     -3.00873324	    -43.18028178	     22.74662827	     -3.26978184	      0.00000000	    -15.40003854	     12.55404476	      5.37733838	     -9.51713863	     26.18820978	      3.11588186	      0.00000000	    -30.66670702	     -3.64001064	    -13.37083859
      5.12000000	     10.79192453	      9.80416787	      3.50905151	      0.81203906	      0.75478383	     -0.28184400	     17.03856210	    -10.80594802	     -3.03393469	    -41.44757818	     22.67823779	     -2.81016380	      0.00000000	    -16.39701760	     12.65190552	      5.33022690	     -9.01718746	     26.38660762	      3.45945493	      0.00000000	    -30.79975067	     -3.81513312	    -13.62003144
      5.12500000	     10.89489897	     10.03212973	      3.55111496	      0.81892125	      0.75407749	     -0.28168944	     17.32128785	    -11.16920047	     -3.08623853	    -39.66823747	     22.62681856	     -2.24124954	      0.00000000	    -17.35933333	     12.75655548	      5.27589673	     -8.54870911	     26.57381916	      3.81528149	      0.00000000	    -30.89903005	     -4.00357075	    -13.85216322
      5.13000000	     10.98459586	     10.25794088	      3.59259706	      0.82585249	      0.75330295	     -0.28152072	     17.57108007	    -11.53521758	     -3.18158338	    -37.84285956	     22.60206647	     -1.52011080	      0.00000000	    -18.29947872	     12.85406381	      5.21231588	     -8.10695391	     26.75305657	      4.18777866	      0.00000000	    -30.97090287	     -4.19479944	    -14.06569128
      5.13500000	     11.06893316	     10.47093748	      3.63046532	      0.83283078	      0.75247282	     -0.28133396	     17.77785342	    -11.88515509	     -3.31042992	    -35.97487485	     22.61070762	     -0.63474545	      0.00000000	    -19.22248378	     12.93306970	      5.16219501	     -7.69717052	     26.95212216	      4.58773957	      0.00000000	    -31.02488576	     -4.37883111	    -14.23853292
